PathFileType	4	(X/Y/Z)	D:\TRACE\v60_Jaco2_6-2-23\BothDRS_Motion3_10-v60.trc
DataRate	CameraRate	NumFrames	NumMarkers	Units	OrigDataRate	OrigDataStartFrame	OrigNumFrames
100.00	100.00	      14	9	mm	100.00	5251	      7000
Frame#	Time	front left toe			Front right toe			aft left toe			aft right toe			Arm			FL body			FR body			AL Body			AR Body			
		X1	Y1	Z1	X2	Y2	Z2	X3	Y3	Z3	X4	Y4	Z4	X5	Y5	Z5	X6	Y6	Z6	X7	Y7	Z7	X8	Y8	Z8	X9	Y9	Z9	

5251	52.500	-215.75508	4.35798	-216.73106	179.04648	110.50488	-235.44702	-180.80388	130.47794	396.10654	192.17989	27.76567	384.38022	40.39562	1123.32117	-580.75140	-100.52187	500.45941	-397.95108	57.11574	495.58841	-403.26093	-59.17340	579.41107	541.86420	92.08188	565.76270	537.20026	
5252	52.510	-215.67918	4.10641	-216.75221	178.02856	102.98750	-236.48965	-183.12955	123.66270	394.99261	192.27469	27.84898	384.21982	40.22051	1123.24890	-581.14954	-100.85460	499.86734	-398.25336	57.25358	494.98364	-403.77994	-58.77218	579.55853	541.69073	92.42899	565.89270	536.90106	
5253	52.520	-215.46115	3.83842	-216.81516	177.58604	94.62988	-238.26799	-184.53790	115.17848	393.79892	192.38649	27.89912	384.01297	39.93203	1123.08301	-581.59601	-101.01089	499.48071	-398.63199	56.96207	494.65247	-404.29559	-58.19178	579.61945	541.43585	92.72233	566.09357	536.36090	
5254	52.530	-215.17482	3.55219	-216.97855	176.79636	85.73611	-239.40694	-186.21996	107.20043	392.06891	192.73239	28.19272	384.00037	39.47653	1123.04297	-582.08093	-101.11115	499.36359	-399.22116	57.52411	494.39392	-405.07431	-57.62392	579.66254	541.01422	93.39997	566.15027	535.77917	
5255	52.540	-214.82172	3.38278	-217.15050	175.21031	76.79192	-241.15594	-187.35564	98.74258	390.73672	193.03180	28.40600	383.91724	39.10359	1122.85303	-582.67615	-101.13645	499.30090	-399.62912	57.58713	494.42770	-405.59064	-56.97321	579.63202	540.46326	93.85364	566.13562	535.32379	
5256	52.550	-214.52425	3.22811	-217.28746	174.33315	67.30917	-242.94630	-187.88530	90.50517	389.11526	193.37680	28.58867	383.62405	38.60063	1122.62952	-583.48914	-101.07353	499.23468	-399.99841	57.59610	494.31882	-406.06036	-56.34539	579.67584	539.92987	94.42504	566.33887	534.67468	
5257	52.560	-214.21249	2.92691	-217.34296	173.99226	58.33836	-244.21378	-187.97015	82.20516	387.83148	193.75630	28.95640	383.50003	38.12932	1122.52856	-584.30310	-101.02158	499.03198	-400.59326	57.73776	494.12961	-406.83331	-55.97432	579.74603	539.34949	94.91364	566.34320	533.87195	
5258	52.570	-213.89970	2.61726	-217.38652	174.23299	49.86681	-244.59203	-187.54677	73.66987	386.87784	194.05917	29.18037	383.41364	38.00526	1122.22107	-585.04694	-100.98187	498.69122	-401.15433	57.04786	493.85638	-407.29053	-55.73936	579.78461	538.49847	95.20119	566.23035	533.32910	
5259	52.580	-213.64558	2.31083	-217.53590	174.95743	41.54430	-245.40604	-185.80722	64.79935	386.53522	194.64227	29.42470	383.22641	38.01672	1121.86353	-586.23999	-100.87801	498.24551	-401.63449	57.58930	493.36765	-408.02551	-55.23415	579.73358	538.05042	95.82635	566.23401	532.39838	
5260	52.590	-213.47792	2.17950	-217.57835	175.67142	33.91423	-245.66145	-185.42912	57.35992	386.43301	195.12991	29.65317	383.03476	38.47603	1121.31848	-587.07043	-100.95977	498.11505	-402.55502	57.64560	493.18710	-409.05072	-54.46776	579.78198	537.20038	96.02485	566.16516	531.63654	
5261	52.600	-213.26540	2.05411	-217.71019	176.32378	26.96873	-245.98756	-183.93953	50.35750	386.07516	195.31525	29.73787	382.85651	38.79985	1120.81885	-588.33392	-100.96143	497.86371	-403.42465	58.04348	492.72263	-409.78775	-54.17542	579.73621	536.27362	96.86326	566.24646	530.74011	
5262	52.610	-212.98019	1.82507	-217.79642	177.29231	20.27990	-246.42404	-181.45166	43.32980	385.84433	195.46016	29.84917	382.78610	39.21884	1120.21924	-589.88519	-100.64259	497.37363	-404.02496	57.27399	492.49911	-410.45013	-53.74458	579.69092	535.45587	97.24053	566.30072	529.87122	
5263	52.620	-212.67621	1.60550	-217.87209	177.60825	13.56793	-247.63750	-180.70692	36.65376	385.80521	195.74669	30.06568	382.52438	39.40487	1119.52295	-591.26886	-100.58221	497.29953	-405.19388	57.01678	492.57684	-411.37793	-53.06774	580.04120	534.45837	97.61230	566.48218	528.68323	
5264	52.630	-212.31134	1.32300	-217.98099	178.56035	6.78328	-248.54698	-180.86046	36.54776	383.61618	196.10965	30.21753	382.39923	39.85417	1118.68921	-592.81085	-100.19740	496.76627	-405.89041	57.79065	491.85205	-412.35385	-52.56216	580.36737	533.42786	97.98385	566.74213	527.73438	
